<svg width="302" height="373" viewBox="0 0 302 373" fill="none" xmlns="http://www.w3.org/2000/svg" class="w-6 h-6 text-gray-100"><path d="M222.282 224.988L261.653 185.617L190.896 114.86C187.985 111.949 183.266 111.949 180.356 114.86L151.525 143.691C148.614 146.601 148.614 151.32 151.525 154.231L222.282 224.988Z" fill="#FF390E"></path><path d="M290.484 235.528C296.305 229.707 296.305 220.269 290.484 214.448L261.653 185.617L118.942 328.328C116.031 331.238 116.031 335.957 118.942 338.868L147.773 367.699C150.683 370.609 155.402 370.609 158.313 367.699L290.484 235.528Z" fill="#FF390E"></path><path fill-rule="evenodd" clip-rule="evenodd" d="M153.981 6.05692C151.07 3.14607 146.352 3.14608 143.441 6.05692L11.2748 138.243C5.45401 144.064 5.45402 153.503 11.2749 159.325L40.105 188.159L40.1077 188.156L110.858 258.888C113.769 261.798 118.489 261.798 121.4 258.888L150.236 230.06C153.147 227.149 153.147 222.431 150.236 219.521L79.4769 148.781L182.811 45.4323C185.721 42.5215 185.721 37.8021 182.811 34.8912L153.981 6.05692Z" fill="#FF390E"></path></svg>
